<?xml version="1.0" encoding="UTF-8"?>
<svg width="130px" height="32px" viewBox="0 0 130 32" version="1.1" xmlns="http://www.w3.org/2000/svg" xmlns:xlink="http://www.w3.org/1999/xlink">
    <title>63BEDFE7-A9D1-46D5-B519-B871898D5BF1</title>
    <defs>
        <linearGradient x1="20.194189%" y1="-13.7369508%" x2="60.5306627%" y2="97.5485511%" id="linearGradient-1">
            <stop stop-color="#17E2CF" offset="0%"></stop>
            <stop stop-color="#5181FD" offset="100%"></stop>
        </linearGradient>
        <linearGradient x1="40.1981419%" y1="4.3530405%" x2="80.4922263%" y2="115.608066%" id="linearGradient-2">
            <stop stop-color="#17E2CF" offset="0%"></stop>
            <stop stop-color="#5181FD" offset="100%"></stop>
        </linearGradient>
    </defs>
    <g id="Styleguide-+-UI-Components" stroke="none" stroke-width="1" fill="none" fill-rule="evenodd">
        <g id="Styleguide" transform="translate(-593.000000, -35.000000)" fill-rule="nonzero">
            <g id="Group-4" transform="translate(593.000000, 28.000000)">
                <g id="PerlinX-Logo" transform="translate(0.000000, 7.000000)">
                    <path d="M105.648289,29.8333 C105.648289,29.5243 105.762584,29.2409 105.894925,29.0006 L105.915979,28.9414 L110.371463,21.2922 L110.499793,21.0541 C110.763473,20.6645 111.248724,20.3988 111.761044,20.3988 C112.291411,20.3988 112.761623,20.6646 113.039339,21.0541 L113.167669,21.2922 L114.9643,24.3378 C115.37937,25.0853 116.350873,25.3395 117.100806,24.9047 C117.608114,24.6228 117.877809,24.0896 117.877809,23.5383 C117.877809,23.2802 117.834698,23.0189 117.65323,22.7708 L114.158222,16.704 L113.883514,16.2316 C113.852434,16.0603 113.785261,15.8851 113.785261,15.6985 C113.785261,15.5133 113.852434,15.3359 113.883514,15.1784 L114.158222,14.6906 L120.277995,4.09859 L120.508589,3.70854 C120.830419,3.34062 121.244486,3.10077 121.751793,3.10077 C122.254088,3.10077 122.7243,3.34449 122.994997,3.72237 C123.100269,3.83285 123.181478,3.95659 123.227597,4.09085 L128.911245,13.8832 C129.473695,14.8812 129.473695,16.5127 128.911245,17.509 L121.878119,29.589 C121.333716,30.5852 119.886987,31.4024 118.750057,31.4024 L107.242398,31.4024 C106.378171,31.4024 105.648289,30.6996 105.648289,29.8333 Z" id="Path" fill="url(#linearGradient-1)"></path>
                    <path d="M117.879814,1.55325 C117.879814,1.86433 117.775545,2.16545 117.633178,2.40576 L117.619142,2.45109 L113.167669,10.1041 L113.039339,10.3401 C112.76062,10.7457 112.291411,11.0138 111.761044,11.0138 C111.248724,11.0138 110.763473,10.7458 110.498791,10.3401 L110.371463,10.102 L108.575835,7.06469 C108.146729,6.31336 107.186253,6.05306 106.433313,6.48456 C105.92801,6.76974 105.648289,7.30887 105.648289,7.84828 C105.648289,8.11402 105.703432,8.3875 105.884899,8.63389 L109.378904,14.6924 L109.640579,15.1785 C109.6877,15.336 109.750863,15.5096 109.750863,15.6986 C109.750863,15.8853 109.6877,16.0604 109.640579,16.2317 L109.378904,16.7041 L103.26214,27.2999 L103.027535,27.6955 C102.717736,28.0635 102.281612,28.3078 101.782326,28.3078 C101.285044,28.3078 100.815835,28.0597 100.538119,27.684 C100.43786,27.5735 100.370687,27.4475 100.311535,27.3138 L94.6399173,17.5091 C94.0638326,16.5128 94.0638326,14.8813 94.6399173,13.8834 L101.656,1.8013 C102.202408,0.809476 103.651142,0 104.776041,0 L116.332827,0 C117.163969,0 117.879814,0.685175 117.879814,1.55325 Z" id="Path" fill="url(#linearGradient-2)"></path>
                    <path d="M11.1964568,6.2795 C12.159539,6.64144 12.8464093,7.27732 13.2696,8.21229 C13.6851711,9.0941 13.8983204,10.376 13.8983204,12.0629 C13.8983204,13.7022 13.6970016,14.982 13.2834357,15.9167 C12.8956362,16.8102 12.2445581,17.4306 11.3408289,17.8064 C10.418953,18.1805 9.17371359,18.338 7.59214739,18.338 C6.17788238,18.338 4.8458493,18.2888 3.56322357,18.1529 L3.56322357,25.6169 L0,25.6169 L0,5.98603 C1.08039452,5.86403 2.10277953,5.78718 3.04201023,5.76175 C3.98541168,5.73798 5.3531969,5.73798 7.13910977,5.73798 C8.88576145,5.73798 10.2326729,5.90927 11.1964568,6.2795 Z M9.01980693,15.1631 C9.47764693,14.9464 9.79534574,14.604 10.0025498,14.1154 C10.1979835,13.6729 10.2928279,12.9524 10.2928279,12.0629 C10.2928279,11.128 10.1980837,10.4545 10.0025498,9.96439 C9.79534574,9.46655 9.47764693,9.13004 9.01980693,8.96427 C8.55115907,8.74764 7.90495359,8.6438 7.04636072,8.6438 C5.39670904,8.6438 4.23807287,8.65154 3.56332382,8.7106 L3.56332382,15.4443 L7.04636072,15.4443 C7.90485333,15.4421 8.55105881,15.3244 9.01980693,15.1631 Z" id="Shape" fill="#FFFFFF"></path>
                    <path d="M29.6977406,22.7531 L29.870586,25.4202 C28.7230284,25.5285 27.479724,25.6091 26.1555111,25.6345 C24.8293933,25.6482 23.1735256,25.6583 21.2100651,25.6583 C19.8839473,25.6583 18.881263,25.355 18.1323328,24.662 C17.3775876,24.0167 16.9928961,23.1188 16.9751504,21.932 L16.9751504,9.63555 C16.9928961,8.49178 17.3775876,7.60223 18.1323328,6.90931 C18.881263,6.25409 19.8839473,5.9115 21.2100651,5.9115 C23.1735256,5.9115 24.8293933,5.93684 26.1555111,5.98604 C27.479724,5.99 28.7230284,6.05303 29.870586,6.14573 L29.6977406,8.87795 L21.9944868,8.87795 C21.4784568,8.87795 21.1131152,9.0017 20.9001664,9.24984 C20.6751866,9.49568 20.5874605,9.94653 20.5874605,10.5174 L20.5874605,13.9717 L28.6353023,13.9717 L28.6353023,16.7001 L20.5874605,16.7001 L20.5874605,21.07 C20.5874605,21.6861 20.6752868,22.1331 20.9001664,22.3828 C21.1131152,22.6287 21.4784568,22.753 21.9944868,22.753 L29.6977406,22.753 L29.6977406,22.7531 Z" id="Path" fill="#FFFFFF"></path>
                    <path d="M48.0630739,25.6168 L44.2740083,25.6168 L42.6990491,19.5369 C42.5106636,18.9064 42.2542026,18.4423 41.8802388,18.1804 C41.5109871,17.9086 41.0315514,17.7826 40.4235845,17.7826 L36.8784475,17.7826 L36.8784475,25.6168 L33.3320072,25.6168 L33.3320072,5.98603 C34.412492,5.86403 35.4267059,5.78718 36.3781581,5.76175 C37.3431452,5.73798 38.7197933,5.73798 40.5106088,5.73798 C42.1721912,5.73798 43.5042243,5.88983 44.4949778,6.23629 C45.4637747,6.59601 46.1823266,7.15523 46.6539421,8 C47.1157323,8.84421 47.360463,9.98411 47.360463,11.4644 C47.360463,12.9838 47.0623948,14.1745 46.49403,14.9481 C45.9080196,15.7846 44.9923597,16.2356 43.6662419,16.4366 L43.6662419,16.5626 C44.2461364,16.6902 44.7771049,17.0228 45.2703762,17.4621 C45.7656527,17.9439 46.1129478,18.5937 46.2808806,19.4479 L48.0630739,25.6168 Z M42.4210326,14.5525 C42.8886377,14.3498 43.2300176,14.0608 43.4177013,13.5884 C43.628645,13.1314 43.7272992,12.5038 43.7272992,11.7064 C43.7272992,10.8776 43.6287452,10.2577 43.4177013,9.83604 C43.2301178,9.38362 42.8886377,9.09401 42.4210326,8.89572 C41.9236506,8.73825 41.2732744,8.6438 40.423785,8.6438 L36.8784475,8.6438 L36.8784475,14.8222 L40.4236848,14.8222 C41.2732744,14.8183 41.9236506,14.7045 42.4210326,14.5525 Z" id="Shape" fill="#FFFFFF"></path>
                    <path d="M54.7947235,21.0426 C54.7947235,21.647 54.9111235,22.0542 55.1597643,22.2902 C55.4085054,22.5382 55.8426243,22.6625 56.4720465,22.6625 L63.3300217,22.6625 L63.4621623,25.4041 C61.5950501,25.6015 58.9842212,25.6584 55.6531359,25.6584 C52.7145623,25.6584 51.224522,24.2941 51.224522,21.6211 L51.224522,5.98602 L54.7947235,5.98602 L54.7947235,21.0426 Z" id="Path" fill="#FFFFFF"></path>
                    <polygon id="Path" fill="#FFFFFF" points="69.714276 25.6168 66.1382594 25.6168 66.1382594 5.98602 69.714276 5.98602"></polygon>
                    <path d="M90.1030243,24.2924 C90.1030243,25.1621 89.6670005,25.6169 88.792647,25.6169 L85.9707742,25.6169 C85.5939028,25.6169 85.285909,25.5224 85.0551142,25.3611 C84.8241189,25.1683 84.6346305,24.9002 84.4867494,24.5284 L78.9499793,12.4916 C78.7467556,12.0727 78.5178656,11.5765 78.2791504,10.9959 C78.0362243,10.4583 77.8744072,9.96439 77.785478,9.59029 L77.436278,9.59029 C77.5606987,10.3577 77.6199514,11.344 77.6199514,12.5137 L77.6199514,25.6169 L74.1050925,25.6169 L74.1050925,7.27962 C74.1050925,6.87023 74.2155773,6.53538 74.4465726,6.33866 C74.6733571,6.11042 75.0049116,5.98602 75.439231,5.98602 L78.2078667,5.98602 C78.5887483,5.98602 78.8867163,6.0613 79.1196165,6.23647 C79.3249457,6.4073 79.5220537,6.68124 79.6918915,7.08464 L85.0551142,18.7788 L85.5087835,19.8004 C85.8167773,20.4204 86.1206605,21.1192 86.4226388,21.879 L86.7541933,21.879 C86.6713798,20.6685 86.6239576,19.5816 86.6239576,18.6783 L86.6239576,5.98602 L90.1030243,5.98602 L90.1030243,24.2924 Z" id="Path" fill="#FFFFFF"></path>
                </g>
            </g>
        </g>
    </g>
</svg>